<?xml version="1.0" standalone="no"?>
<!DOCTYPE svg PUBLIC "-//W3C//DTD SVG 20010904//EN"
 "http://www.w3.org/TR/2001/REC-SVG-20010904/DTD/svg10.dtd">
<svg version="1.0" xmlns="http://www.w3.org/2000/svg"
 width="500.000000pt" height="117.000000pt" viewBox="0 0 500.000000 117.000000"
 preserveAspectRatio="xMidYMid meet">

<g transform="translate(0.000000,117.000000) scale(0.100000,-0.100000)"
fill="#000000" stroke="none">
<path d="M711 881 l-44 -6 -83 -290 c-46 -159 -84 -293 -84 -297 0 -5 25 -8
55 -8 l54 0 10 38 c5 20 14 53 19 72 l8 35 91 3 91 3 11 -33 c5 -18 15 -52 21
-75 l11 -43 65 0 c63 0 65 1 58 23 -4 12 -44 148 -89 302 l-81 280 -35 1 c-18
1 -54 -1 -78 -5z m65 -240 l31 -119 -46 -4 c-96 -7 -93 -14 -58 123 16 65 32
119 36 119 3 0 20 -54 37 -119z"/>
<path d="M1093 883 l-23 -4 0 -300 0 -299 60 0 60 0 0 305 0 305 -37 -1 c-21
-1 -48 -4 -60 -6z"/>
<path d="M2638 863 c-15 -4 -17 -27 -17 -251 0 -167 4 -258 12 -282 16 -47 56
-66 116 -54 43 8 46 11 48 41 1 28 -2 33 -21 33 -44 0 -46 10 -46 272 l0 248
-37 -1 c-21 -1 -46 -3 -55 -6z"/>
<path d="M3280 820 l0 -50 50 0 50 0 0 50 0 50 -50 0 -50 0 0 -50z"/>
<path d="M1793 852 l-53 -3 0 -279 c0 -317 -11 -284 102 -295 169 -17 280 53
280 175 0 58 -19 93 -67 121 l-34 20 36 33 c30 27 36 41 40 82 10 120 -77 162
-304 146z m164 -98 c46 -29 36 -102 -18 -124 -24 -10 -29 -18 -29 -46 0 -29 5
-36 34 -48 62 -26 80 -74 52 -141 -14 -32 -18 -35 -58 -35 -94 0 -88 -15 -88
217 l0 205 43 -7 c23 -4 52 -13 64 -21z"/>
<path d="M2335 711 c-102 -25 -152 -110 -143 -241 10 -139 87 -206 223 -195
85 7 95 12 95 45 0 30 -1 30 -55 30 -91 0 -155 40 -155 96 0 25 19 30 139 33
41 1 79 5 83 7 15 10 8 118 -10 154 -28 56 -107 87 -177 71z m83 -88 c6 -9 12
-32 12 -50 l0 -33 -65 0 c-63 0 -65 1 -65 26 0 27 16 64 34 77 17 11 69 -1 84
-20z"/>
<path d="M2974 710 c-72 -10 -121 -55 -124 -115 -4 -64 1 -86 28 -117 27 -29
28 -34 19 -77 -5 -25 -21 -61 -35 -79 -28 -37 -34 -101 -13 -140 16 -30 85
-61 133 -62 86 0 187 61 208 125 23 70 -16 108 -139 132 -66 13 -81 20 -81 35
0 14 8 18 38 18 20 0 56 9 80 20 34 15 47 29 63 66 18 39 19 52 10 88 -5 22
-7 42 -2 44 4 1 16 9 26 16 14 10 15 17 6 33 -9 19 -15 20 -50 11 -24 -6 -56
-7 -83 -1 -23 5 -62 6 -84 3z m68 -67 c25 -29 31 -77 14 -117 -13 -32 -19 -36
-51 -36 -31 0 -38 4 -50 33 -8 18 -12 42 -10 53 2 10 4 27 4 36 2 43 64 64 93
31z m-15 -343 c68 -15 78 -23 64 -49 -25 -46 -117 -67 -153 -34 -20 18 -23 45
-8 74 12 22 29 23 97 9z"/>
<path d="M4123 709 c-23 -4 -51 -13 -63 -19 -16 -9 -20 -8 -20 5 0 11 -12 15
-49 15 l-50 0 -1 -215 0 -215 55 0 55 0 0 175 0 175 41 0 c79 0 79 1 79 -185
l0 -165 55 0 56 0 -2 173 -1 172 37 3 c21 2 47 -3 61 -13 24 -15 24 -17 24
-175 l0 -160 50 0 50 0 0 185 0 185 -27 30 c-24 27 -35 31 -78 32 -27 0 -69
-8 -92 -17 -37 -15 -44 -15 -65 -2 -33 21 -67 26 -115 16z"/>
<path d="M1373 560 c-88 -129 -103 -156 -103 -190 l0 -40 110 0 110 0 0 -66 0
-65 48 3 47 3 0 60 0 60 32 3 c25 2 34 9 39 27 11 44 2 60 -39 63 l-37 3 0
145 0 144 -52 0 -53 0 -102 -150z m117 -60 l0 -80 -55 0 c-30 0 -55 3 -55 6 0
7 101 154 106 154 2 0 4 -36 4 -80z" fill='#1100FE'/>
<path d="M3280 495 l0 -215 50 0 50 0 0 215 0 215 -50 0 -50 0 0 -215z"/>
<path d="M3492 521 l3 -191 28 -27 c23 -24 35 -28 80 -27 30 0 67 8 87 19 19
9 36 14 37 9 10 -27 21 -32 65 -27 l47 6 -5 56 c-3 31 -7 126 -7 211 l-2 155
-52 3 -53 3 0 -169 c0 -187 2 -182 -65 -182 -18 0 -37 6 -44 13 -6 8 -12 76
-13 173 l-3 159 -53 3 -53 3 3 -190z"/>
</g>
</svg>
